<svg width="128" height="128" viewBox="0 0 128 128" fill="none" xmlns="http://www.w3.org/2000/svg">
<path d="M63.6 118.8C35.7 118.8 5.59998 101.3 5.59998 62.9C5.59998 24.5 35.7 7 63.6 7C79.1 7 93.4 12.1 104 21.4C115.5 31.6 121.6 46 121.6 62.9C121.6 79.8 115.5 94.1 104 104.3C93.4 113.6 79 118.8 63.6 118.8Z" fill="url(#paint0_radial)"/>
<path d="M25.15 70.57C26.84 74.34 29.07 77.86 31.76 81C34.42 84.1 37.51 86.79 40.94 89C44.35 91.22 48.05 92.95 51.94 94.13C59.7762 96.42 68.1039 96.42 75.9401 94.13C79.8301 92.95 83.53 91.22 86.94 89C90.41 86.8 93.55 84.1 96.24 81C98.93 77.87 101.15 74.38 102.85 70.62C103.45 69.53 104.81 69.13 105.9 69.73C106.8 70.23 107.26 71.27 107 72.27C105.389 76.5909 103.122 80.6382 100.28 84.27C95.9581 89.7577 90.4477 94.1936 84.1636 97.2439C77.8795 100.294 70.9853 101.879 64 101.88C57.013 101.878 50.1176 100.29 43.8332 97.236C37.5488 94.1821 32.0394 89.742 27.72 84.25C24.878 80.6182 22.6115 76.5709 21 72.25C20.53 71.11 21.07 69.79 22.21 69.32C23.35 68.85 24.67 69.39 25.14 70.53L25.15 70.57V70.57Z" fill="#422B0D"/>
<path d="M111.49 29.67C116.82 38.27 119.6 48.51 119.6 59.9C119.6 76.8 113.5 91.1 102 101.3C91.4 110.6 77 115.8 61.6 115.8C43.54 115.8 24.6 108.45 13.42 92.86C24.18 110.52 44.42 118.8 63.6 118.8C79 118.8 93.4 113.6 104 104.3C115.5 94.1 121.6 79.8 121.6 62.9C121.6 50.16 118.13 38.84 111.49 29.67V29.67Z" fill="#EB8F00"/>
<path d="M50.15 56.0999L50 55.88L49.79 55.61C49.71 55.5 49.63 55.41 49.53 55.32L48.91 54.7C48.66 54.45 48.36 54.18 48.05 53.91C47.39 53.34 46.65 52.88 45.85 52.52C45.07 52.17 44.22 52 43.37 52H43C42.9044 51.9799 42.8056 51.9799 42.71 52C42.53 52.02 42.35 52.05 42.17 52.09C41.75 52.19 41.35 52.3199 40.95 52.4799C40.15 52.8399 39.41 53.2999 38.75 53.8699C38.21 54.3299 37.71 54.82 37.24 55.34L36.67 55.9799L36.37 56.32C35.7998 56.9935 34.9853 57.4131 34.1058 57.4862C33.2263 57.5593 32.3537 57.2801 31.68 56.7099C31.157 56.266 30.7833 55.6717 30.6098 55.008C30.4362 54.3442 30.4712 53.6431 30.71 53L30.82 52.68C30.92 52.37 31.04 52.07 31.17 51.77C31.65 50.68 32.26 49.6599 33 48.7299C34.75 46.42 37.21 44.7399 40 43.9399C40.57 43.7899 41.15 43.6799 41.74 43.5999C42.04 43.5999 42.48 43.5099 42.61 43.5099H43.37C44.51 43.5299 45.64 43.6899 46.74 43.9799C47.79 44.2699 48.8 44.6899 49.74 45.2299C51.29 46.1299 52.65 47.34 53.74 48.77C54.16 49.31 54.54 49.87 54.87 50.47C55.14 50.94 55.38 51.42 55.59 51.91C55.67 52.07 55.74 52.24 55.79 52.41C55.79 52.54 55.87 52.65 55.9 52.74L56 53C56.57 54.77 55.6 56.67 53.83 57.24C52.49 57.66 51.02 57.1999 50.15 56.0999V56.0999Z" fill="#422B0D"/>
<path d="M93.48 56.1L93.3 55.88L93.09 55.61C93.01 55.5 92.93 55.41 92.83 55.32L92.21 54.7C91.96 54.45 91.66 54.18 91.35 53.91C90.69 53.34 89.95 52.88 89.15 52.52C88.38 52.18 87.54 52 86.7 52H86.29C86.1944 51.98 86.0956 51.98 86 52C85.82 52.02 85.64 52.05 85.46 52.09C85.04 52.19 84.64 52.32 84.24 52.48C83.43 52.85 82.67 53.33 82 53.91C81.46 54.37 80.96 54.86 80.48 55.38L80 56L79.7 56.34C79.4336 56.6871 79.1012 56.9782 78.7219 57.1964C78.3426 57.4146 77.9238 57.5557 77.4898 57.6114C77.0558 57.6672 76.615 57.6366 76.1928 57.5213C75.7707 57.4061 75.3755 57.2085 75.03 56.94C74.4447 56.4912 74.0257 55.8602 73.8392 55.1466C73.6526 54.4331 73.7092 53.6778 74 53L74.11 52.68C74.21 52.37 74.33 52.07 74.46 51.77C74.93 50.67 75.55 49.64 76.28 48.69C78.03 46.38 80.49 44.7 83.28 43.9C83.85 43.75 84.43 43.64 85.02 43.56C85.32 43.56 85.75 43.47 85.89 43.47H86.65C87.79 43.49 88.92 43.65 90.02 43.94C91.07 44.23 92.08 44.65 93.02 45.19C94.57 46.09 95.93 47.3 97.02 48.73C97.44 49.27 97.82 49.83 98.15 50.43C98.42 50.9 98.66 51.38 98.87 51.87C98.95 52.03 99.02 52.2 99.07 52.37L99.18 52.7L99.27 52.97C99.84 54.74 98.87 56.63 97.1 57.2C95.77 57.63 94.32 57.19 93.45 56.1H93.48V56.1Z" fill="#422B0D"/>
<path d="M86.67 89.27C85.84 89.79 85 90.27 84.14 90.75C85.14 90.21 86.14 89.64 87.06 89.03L86.67 89.27Z" fill="#FF4081"/>
<path d="M74 94.68C74.67 94.52 75.34 94.35 76 94.15C75.36 94.36 74.69 94.51 74 94.68Z" fill="#FF4081"/>
<path d="M76 94.16C76.93 93.89 77.83 93.58 78.73 93.24C77.85 93.58 77 93.89 76 94.16Z" fill="#FF4081"/>
<path d="M92.21 85.1C91.6 85.64 90.97 86.16 90.32 86.65C90 86.91 89.67 87.15 89.32 87.4C88.57 87.97 87.81 88.52 87.03 89.03C88.03 88.4 88.93 87.72 89.85 87.03C90.77 86.34 91.46 85.77 92.21 85.1V85.1Z" fill="#FF4081"/>
<path opacity="0.3" d="M94.1601 83.21C94.0901 83.28 94.0301 83.35 93.9601 83.41C93.4001 84 92.8101 84.56 92.2101 85.1C92.8401 84.54 93.4501 83.96 94.0301 83.35L94.1601 83.21V83.21Z" fill="#AB3F2E"/>
<path d="M68.3501 95.64L72.0601 99.58L72.4201 99.95L68.3501 95.64Z" fill="#FF4081"/>
<path opacity="0.3" d="M72.42 99.95L73.31 100.91L73.32 100.9V100.89L72.42 99.95Z" fill="#AB3F2E"/>
<path d="M109.62 89.11L102.62 81.79L102.34 81.5L99.66 78.7L98.87 77.87L98.77 77.77C97.98 78.89 97.14 79.97 96.24 81C93.58 84.1 90.49 86.79 87.06 89C83.6538 91.2204 79.9504 92.9476 76.06 94.13C73.56 94.87 70.99 95.36 68.39 95.61L72.42 100L73.32 100.94L74.04 101.69L74.45 102.12L84.79 112.92C90.78 119.18 100.71 119.4 106.97 113.41L109.13 111.34C115.4 105.35 115.64 95.42 109.65 89.14L109.62 89.11V89.11Z" fill="#FF4081"/>
<path d="M95.67 96.63L87.86 88.46C87.59 88.65 87.33 88.85 87.06 89.03C86.23 89.56 85.39 90.03 84.54 90.54L92.9 99.28C93.25 99.65 93.73 99.86 94.24 99.87C94.75 99.89 95.24 99.7 95.61 99.34C96.37 98.62 96.41 97.42 95.69 96.65L95.67 96.63V96.63Z" fill="#E62B6B"/>
<path opacity="0.3" d="M99.61 78.66L98.82 77.83L98.72 77.73C97.95 78.86 97.12 79.95 96.24 81C93.58 84.1 90.49 86.79 87.06 89C83.6538 91.2205 79.9504 92.9476 76.06 94.13C73.56 94.87 70.99 95.36 68.39 95.61L72.42 100L73.32 100.94C91.93 94.19 98.38 81.71 99.61 78.66V78.66Z" fill="#AB3F2E"/>
<defs>
<radialGradient id="paint0_radial" cx="0" cy="0" r="1" gradientUnits="userSpaceOnUse" gradientTransform="translate(63.6 62.9) scale(56.96)">
<stop offset="0.5" stop-color="#FDE030"/>
<stop offset="0.92" stop-color="#F7C02B"/>
<stop offset="1" stop-color="#F4A223"/>
</radialGradient>
</defs>
</svg>
